# xmcd
#
# Track frame offsets:
#	150
#	21318
#	37818
#	54927
#	72246
#	89814
#	107508
#	124530
#	141789
#	161023
#	178325
#	199221
#	220503
#	233428
#
# Disc length: 3336 seconds
#
# Revision: 2
# Processed by: cddbd v1.5.1PL2 Copyright (c) Steve Scherf et al.
# Submitted via: EasyCDDAExtractor 9.1.0.1
#
DISCID=bc0d060e
DTITLE=Various Artist - Planeta Do Samba
DYEAR=2004
DGENRE=Samba
TTITLE0=Art Popular - Tá Doendo Demais Essa Saudade
TTITLE1=Compromisso Certo - Vacilão
TTITLE2=Sorriso Maroto - Coração Deserto
TTITLE3=Serginho Meriti - Deixa A Vida Me Levar
TTITLE4=Grupo Nascente - Teu Refém
TTITLE5=Da Melhor Qualidade - Vou Virar O Jogo
TTITLE6=Gamação - Beijando
TTITLE7=Bala, Bombom E Chocolate - Caixa Postal
TTITLE8=Grupo Revelação - Essência Da Paixão
TTITLE9=Beth Carvalho , Arlindo Cruz and Sombrinha - Silêncio No Olhar
TTITLE10=Fundo de Quintal and Almir Guineto - Mel Na Boca
TTITLE11=Zeca Pagodinho and Leci Brandão - Menor Abandonada
TTITLE12=Jorge Aragão - Logo Agora (Ao Vivo)
TTITLE13=Bokaloka - Shortinho Saint-Tropez
EXTD=
EXTT0=
EXTT1=
EXTT2=
EXTT3=
EXTT4=
EXTT5=
EXTT6=
EXTT7=
EXTT8=
EXTT9=
EXTT10=
EXTT11=
EXTT12=
EXTT13=
PLAYORDER=
